<mxfile host="app.diagrams.net" modified="2024-01-17T06:48:19.374Z" agent="Mozilla/5.0 (Windows NT 10.0; Win64; x64) AppleWebKit/537.36 (KHTML, like Gecko) Chrome/120.0.0.0 Safari/537.36" etag="MEx__OaXY1TZ_2TB7NUJ" version="22.1.20" type="github">
  <diagram name="第 1 页" id="uFpwxGLy6YJfdJJdwBbi">
    <mxGraphModel dx="1659" dy="662" grid="0" gridSize="10" guides="1" tooltips="1" connect="1" arrows="1" fold="1" page="0" pageScale="1" pageWidth="827" pageHeight="1169" math="0" shadow="0">
      <root>
        <mxCell id="0" />
        <mxCell id="1" parent="0" />
        <mxCell id="fYVHIgQ5rP5VqWUu2Dhq-4" value="" style="whiteSpace=wrap;html=1;aspect=fixed;fillColor=#dae8fc;strokeColor=#6c8ebf;" parent="1" vertex="1">
          <mxGeometry x="288" y="361" width="221" height="221" as="geometry" />
        </mxCell>
        <mxCell id="fYVHIgQ5rP5VqWUu2Dhq-5" value="字符串常量池" style="text;html=1;strokeColor=none;fillColor=none;align=center;verticalAlign=middle;whiteSpace=wrap;rounded=0;fontStyle=1;fontSize=18;" parent="1" vertex="1">
          <mxGeometry x="332" y="331" width="120" height="33" as="geometry" />
        </mxCell>
        <mxCell id="fYVHIgQ5rP5VqWUu2Dhq-6" value="" style="whiteSpace=wrap;html=1;aspect=fixed;fillColor=#d5e8d4;strokeColor=#82b366;" parent="1" vertex="1">
          <mxGeometry x="11" y="361" width="218" height="218" as="geometry" />
        </mxCell>
        <mxCell id="fYVHIgQ5rP5VqWUu2Dhq-7" value="堆" style="text;html=1;strokeColor=none;fillColor=none;align=center;verticalAlign=middle;whiteSpace=wrap;rounded=0;fontStyle=1;fontSize=18;" parent="1" vertex="1">
          <mxGeometry x="56" y="328" width="120" height="33" as="geometry" />
        </mxCell>
        <mxCell id="fYVHIgQ5rP5VqWUu2Dhq-8" value="abc" style="text;html=1;strokeColor=none;fillColor=none;align=center;verticalAlign=middle;whiteSpace=wrap;rounded=0;fontSize=17;" parent="1" vertex="1">
          <mxGeometry x="385.5" y="376" width="23" height="23" as="geometry" />
        </mxCell>
        <mxCell id="fYVHIgQ5rP5VqWUu2Dhq-9" value="def" style="text;html=1;strokeColor=none;fillColor=none;align=center;verticalAlign=middle;whiteSpace=wrap;rounded=0;fontSize=15;" parent="1" vertex="1">
          <mxGeometry x="365" y="411" width="60" height="30" as="geometry" />
        </mxCell>
        <mxCell id="fYVHIgQ5rP5VqWUu2Dhq-10" value="abcdef" style="text;html=1;strokeColor=none;fillColor=none;align=center;verticalAlign=middle;whiteSpace=wrap;rounded=0;fontSize=15;" parent="1" vertex="1">
          <mxGeometry x="95" y="376" width="38" height="20" as="geometry" />
        </mxCell>
        <mxCell id="fYVHIgQ5rP5VqWUu2Dhq-11" value="abc" style="text;html=1;strokeColor=none;fillColor=none;align=center;verticalAlign=middle;whiteSpace=wrap;rounded=0;fontSize=15;" parent="1" vertex="1">
          <mxGeometry x="86" y="402" width="29" height="28" as="geometry" />
        </mxCell>
        <mxCell id="fYVHIgQ5rP5VqWUu2Dhq-12" value="def" style="text;html=1;strokeColor=none;fillColor=none;align=center;verticalAlign=middle;whiteSpace=wrap;rounded=0;fontSize=15;" parent="1" vertex="1">
          <mxGeometry x="84.5" y="439" width="29.5" height="28" as="geometry" />
        </mxCell>
        <mxCell id="fYVHIgQ5rP5VqWUu2Dhq-15" style="edgeStyle=none;curved=1;rounded=0;orthogonalLoop=1;jettySize=auto;html=1;endArrow=open;startSize=14;endSize=14;sourcePerimeterSpacing=8;targetPerimeterSpacing=8;" parent="1" source="fYVHIgQ5rP5VqWUu2Dhq-13" target="fYVHIgQ5rP5VqWUu2Dhq-8" edge="1">
          <mxGeometry relative="1" as="geometry" />
        </mxCell>
        <mxCell id="fYVHIgQ5rP5VqWUu2Dhq-13" value="String s" style="text;html=1;strokeColor=none;fillColor=none;align=center;verticalAlign=middle;whiteSpace=wrap;rounded=0;fontSize=15;" parent="1" vertex="1">
          <mxGeometry x="592" y="369" width="60" height="30" as="geometry" />
        </mxCell>
        <mxCell id="fYVHIgQ5rP5VqWUu2Dhq-17" style="edgeStyle=none;curved=1;rounded=0;orthogonalLoop=1;jettySize=auto;html=1;endArrow=open;startSize=14;endSize=14;sourcePerimeterSpacing=8;targetPerimeterSpacing=8;" parent="1" source="fYVHIgQ5rP5VqWUu2Dhq-16" target="fYVHIgQ5rP5VqWUu2Dhq-10" edge="1">
          <mxGeometry relative="1" as="geometry" />
        </mxCell>
        <mxCell id="fYVHIgQ5rP5VqWUu2Dhq-16" value="String s1" style="text;html=1;strokeColor=none;fillColor=none;align=center;verticalAlign=middle;whiteSpace=wrap;rounded=0;fontSize=15;" parent="1" vertex="1">
          <mxGeometry x="-105" y="376" width="83" height="23" as="geometry" />
        </mxCell>
        <mxCell id="fYVHIgQ5rP5VqWUu2Dhq-19" style="edgeStyle=none;curved=1;rounded=0;orthogonalLoop=1;jettySize=auto;html=1;endArrow=open;startSize=14;endSize=14;sourcePerimeterSpacing=8;targetPerimeterSpacing=8;" parent="1" source="fYVHIgQ5rP5VqWUu2Dhq-18" target="fYVHIgQ5rP5VqWUu2Dhq-11" edge="1">
          <mxGeometry relative="1" as="geometry" />
        </mxCell>
        <mxCell id="fYVHIgQ5rP5VqWUu2Dhq-18" value="String s2" style="text;html=1;strokeColor=none;fillColor=none;align=center;verticalAlign=middle;whiteSpace=wrap;rounded=0;fontSize=15;" parent="1" vertex="1">
          <mxGeometry x="-97.5" y="408.5" width="68" height="21" as="geometry" />
        </mxCell>
        <mxCell id="fYVHIgQ5rP5VqWUu2Dhq-22" style="edgeStyle=none;curved=1;rounded=0;orthogonalLoop=1;jettySize=auto;html=1;endArrow=open;startSize=14;endSize=14;sourcePerimeterSpacing=8;targetPerimeterSpacing=8;" parent="1" source="fYVHIgQ5rP5VqWUu2Dhq-20" target="fYVHIgQ5rP5VqWUu2Dhq-12" edge="1">
          <mxGeometry relative="1" as="geometry" />
        </mxCell>
        <mxCell id="fYVHIgQ5rP5VqWUu2Dhq-20" value="String s3" style="text;html=1;strokeColor=none;fillColor=none;align=center;verticalAlign=middle;whiteSpace=wrap;rounded=0;fontSize=15;" parent="1" vertex="1">
          <mxGeometry x="-99" y="445" width="68" height="21" as="geometry" />
        </mxCell>
        <mxCell id="fYVHIgQ5rP5VqWUu2Dhq-25" value="abcdef" style="text;html=1;strokeColor=none;fillColor=none;align=center;verticalAlign=middle;whiteSpace=wrap;rounded=0;fontSize=15;" parent="1" vertex="1">
          <mxGeometry x="88" y="479" width="25" height="25" as="geometry" />
        </mxCell>
        <mxCell id="fYVHIgQ5rP5VqWUu2Dhq-29" style="edgeStyle=none;curved=1;rounded=0;orthogonalLoop=1;jettySize=auto;html=1;endArrow=open;startSize=14;endSize=14;sourcePerimeterSpacing=8;targetPerimeterSpacing=8;" parent="1" source="fYVHIgQ5rP5VqWUu2Dhq-27" target="fYVHIgQ5rP5VqWUu2Dhq-25" edge="1">
          <mxGeometry relative="1" as="geometry" />
        </mxCell>
        <mxCell id="fYVHIgQ5rP5VqWUu2Dhq-31" style="edgeStyle=none;curved=1;rounded=0;orthogonalLoop=1;jettySize=auto;html=1;endArrow=open;startSize=14;endSize=14;sourcePerimeterSpacing=8;targetPerimeterSpacing=8;" parent="1" source="fYVHIgQ5rP5VqWUu2Dhq-27" target="fYVHIgQ5rP5VqWUu2Dhq-9" edge="1">
          <mxGeometry relative="1" as="geometry" />
        </mxCell>
        <mxCell id="fYVHIgQ5rP5VqWUu2Dhq-34" style="edgeStyle=none;curved=1;rounded=0;orthogonalLoop=1;jettySize=auto;html=1;endArrow=open;startSize=14;endSize=14;sourcePerimeterSpacing=8;targetPerimeterSpacing=8;" parent="1" source="fYVHIgQ5rP5VqWUu2Dhq-27" edge="1">
          <mxGeometry relative="1" as="geometry">
            <mxPoint x="135" y="404" as="targetPoint" />
          </mxGeometry>
        </mxCell>
        <mxCell id="fYVHIgQ5rP5VqWUu2Dhq-27" value="String s1 = s + &quot;def&quot;;被改写成String s1 = new StringBuilder(&quot;abc&quot;).append(&quot;def&quot;).toString();" style="text;whiteSpace=wrap;html=1;fontSize=16;" parent="1" vertex="1">
          <mxGeometry x="114" y="621" width="335" height="52" as="geometry" />
        </mxCell>
        <mxCell id="fYVHIgQ5rP5VqWUu2Dhq-33" value="&lt;br style=&quot;border-color: var(--border-color); font-size: 15px;&quot;&gt;append(&quot;def&quot;)中的&quot;def&quot;" style="text;html=1;strokeColor=none;fillColor=none;align=center;verticalAlign=middle;whiteSpace=wrap;rounded=0;fontSize=15;" parent="1" vertex="1">
          <mxGeometry x="394" y="449" width="162" height="30" as="geometry" />
        </mxCell>
        <mxCell id="fYVHIgQ5rP5VqWUu2Dhq-35" value="new StringBuilder(&quot;abc&quot;)生成的，随后扩展成&quot;abcdef&quot;,最之后可能被回收" style="text;html=1;strokeColor=none;fillColor=none;align=center;verticalAlign=middle;whiteSpace=wrap;rounded=0;fontSize=14;" parent="1" vertex="1">
          <mxGeometry x="-34" y="546" width="207" height="25" as="geometry" />
        </mxCell>
        <mxCell id="fYVHIgQ5rP5VqWUu2Dhq-36" value="最后的toString生成的" style="text;html=1;strokeColor=none;fillColor=none;align=center;verticalAlign=middle;whiteSpace=wrap;rounded=0;" parent="1" vertex="1">
          <mxGeometry x="149" y="408.5" width="123" height="24" as="geometry" />
        </mxCell>
      </root>
    </mxGraphModel>
  </diagram>
</mxfile>
